<?xml version="1.0" encoding="utf-8"?>
<!-- Generator: Adobe Illustrator 18.1.1, SVG Export Plug-In . SVG Version: 6.00 Build 0)  -->
<svg version="1.1" id="Layer_1" xmlns="http://www.w3.org/2000/svg" xmlns:xlink="http://www.w3.org/1999/xlink" x="0px" y="0px"
	 viewBox="0 0 226.8 226.8" enable-background="new 0 0 226.8 226.8" xml:space="preserve">
<g display="none">
	<g display="inline">
		<rect x="48.1" y="77.8" fill="#58595B" width="132.5" height="84.5"/>
		<rect x="52.2" y="81.2" fill="#FFFFFF" width="124" height="77.1"/>
	</g>
	<g display="inline">
		<rect x="57.2" y="86.1" fill="#58595B" width="113.3" height="67.4"/>
		<rect x="61.2" y="90.1" fill="#44BDE8" width="105.3" height="59.2"/>
	</g>
	<g display="inline">
		<rect x="34.8" y="158.4" fill="#58595B" width="158.9" height="8.6"/>
		<rect x="39" y="161.6" fill="#FFFFFF" width="151.3" height="2"/>
	</g>
	<rect x="60.5" y="100.2" display="inline" fill="#58595B" width="107.2" height="4.5"/>
	<rect x="61.2" y="90.1" display="inline" fill="#FFFFFF" width="105.3" height="10.1"/>
	<rect x="77.7" y="89.1" display="inline" fill="#58595B" width="3" height="12.4"/>
	
		<circle display="inline" fill="#44BDE7" stroke="#58595B" stroke-width="4" stroke-miterlimit="10" cx="180.6" cy="71.3" r="16.2"/>
	<circle display="inline" fill="#FFFFFF" cx="98.5" cy="132.2" r="2"/>
	<circle display="inline" fill="#FFFFFF" cx="108.3" cy="132.2" r="2"/>
	<circle display="inline" fill="#FFFFFF" cx="118" cy="132.2" r="2"/>
	<circle display="inline" fill="#FFFFFF" cx="127.3" cy="132.2" r="2"/>
	<g display="inline">
		<g>
			<path fill="#FFFFFF" d="M179.4,62.7c0,3.2,0,6.3,0,9.5c0,0.7,0.6,1.3,1.3,1.3c3.2,0,6.5,0,9.7,0c1.6,0,1.6-2.5,0-2.5
				c-3.2,0-6.5,0-9.7,0c0.4,0.4,0.8,0.8,1.3,1.3c0-3.2,0-6.3,0-9.5C181.9,61.1,179.4,61.1,179.4,62.7L179.4,62.7z"/>
		</g>
	</g>
</g>
<g display="none">
	<g display="inline">
		<rect x="44.3" y="105.2" fill="#58595B" width="132.5" height="84.5"/>
		<rect x="48.4" y="108.6" fill="#FFFFFF" width="124" height="77.1"/>
	</g>
	<g display="inline">
		<rect x="53.4" y="113.6" fill="#58595B" width="113.3" height="67.4"/>
		<rect x="57.4" y="117.5" fill="#44BDE8" width="105.3" height="59.2"/>
	</g>
	<g display="inline">
		<rect x="31" y="185.8" fill="#58595B" width="158.9" height="8.6"/>
		<rect x="35.2" y="189.1" fill="#FFFFFF" width="151.3" height="2"/>
	</g>
	<g display="inline">
		<g>
			<path fill="#58595B" d="M112.3,98.9c0-9.2,0-18.4,0-27.7c0-3.1-4.8-3.1-4.8,0c0,9.2,0,18.4,0,27.7
				C107.5,101.9,112.3,102,112.3,98.9L112.3,98.9z"/>
		</g>
	</g>
	<g display="inline">
		<path fill="#FFFFFF" d="M157.7,57.1c0-12.6-10.9-22.9-24.2-22.9c-7.6,0-14.4,3.3-18.8,8.5c0-0.1,0-0.2,0-0.4
			c0-9-7.7-16.2-17.2-16.2s-17.2,7.3-17.2,16.2c0,1.9,0.3,3.6,1,5.3c-0.3,0-0.6,0-1,0c-9.5,0-17.2,7.3-17.2,16.2
			c0,9,7.7,16.2,17.2,16.2h54.1v0C147.4,79.5,157.7,69.4,157.7,57.1z"/>
		<g>
			<path fill="#58595B" d="M160.1,57.1C159.4,32.9,128.7,23.8,113,41c1.4,0.6,2.7,1.1,4.1,1.7c0.6-11.5-10.9-19.9-21.6-18.8
				c-12.1,1.3-20,12.7-16.4,24.4c0.8-1,1.5-2,2.3-3C71,44.7,61.2,52.5,60.8,63.1c-0.4,10.6,8.6,18.7,18.8,19.2
				c12.7,0.7,25.7,0,38.4,0c5.5,0,11,0,16.4,0c1.3,0,2.4-1.1,2.4-2.4c0,0,0,0,0,0c-0.8,0.8-1.6,1.6-2.4,2.4
				C148.3,81.4,159.7,71.3,160.1,57.1c0.1-3.1-4.7-3.1-4.8,0c-0.4,11.5-9.6,19.8-20.9,20.5c-1.3,0.1-2.4,1-2.4,2.4c0,0,0,0,0,0
				c0.8-0.8,1.6-1.6,2.4-2.4c-13.6,0-27.2,0-40.8,0c-4.8,0-9.9,0.4-14.7-0.1c-7.6-0.7-14.2-7.2-13.3-15.1
				c0.8-7.8,8.2-12.8,15.7-12.5c1.5,0.1,2.7-1.6,2.3-3c-2.8-9.2,3.5-18,13.2-18.5c7.9-0.4,15.9,5.8,15.5,14.2
				c-0.1,2,2.7,3.2,4.1,1.7c12.8-13.9,38.4-7.4,39,12.8C155.4,60.2,160.2,60.2,160.1,57.1z"/>
		</g>
	</g>
	<circle display="inline" fill="#58595B" cx="88.4" cy="65.3" r="2.6"/>
	<circle display="inline" fill="#58595B" cx="109.9" cy="65.3" r="2.6"/>
	<circle display="inline" fill="#58595B" cx="132.1" cy="65.3" r="2.6"/>
	<rect x="56.7" y="127.7" display="inline" fill="#58595B" width="107.2" height="4.5"/>
	<rect x="57.4" y="117.5" display="inline" fill="#FFFFFF" width="105.3" height="10.1"/>
	<rect x="73.9" y="116.5" display="inline" fill="#58595B" width="3" height="12.4"/>
</g>
<g display="none">
	<g display="inline">
		<g>
			<path fill="#27AAE1" d="M132.5,161c0,2-1.6,3.6-3.6,3.6H78.9c-2,0-3.6-1.6-3.6-3.6V55.5c0-2,1.6-3.6,3.6-3.6H129
				c2,0,3.6,1.6,3.6,3.6V161z"/>
			<path fill="#F1F2F2" d="M132.5,147.9c0,1.5-1.6,2.6-3.6,2.6H78.9c-2,0-3.6-1.2-3.6-2.6V70c0-1.5,1.6-2.6,3.6-2.6H129
				c2,0,3.6,1.2,3.6,2.6V147.9z"/>
			<path fill="#58595B" d="M129,166.9H78.9c-3.3,0-5.9-2.7-5.9-5.9V55.5c0-3.3,2.7-5.9,5.9-5.9H129c3.3,0,5.9,2.7,5.9,5.9V161
				C134.9,164.3,132.2,166.9,129,166.9z M78.9,54.3c-0.7,0-1.2,0.6-1.2,1.2V161c0,0.7,0.6,1.2,1.2,1.2H129c0.7,0,1.2-0.6,1.2-1.2
				V55.5c0-0.7-0.6-1.2-1.2-1.2H78.9z"/>
		</g>
		<g>
			<rect x="76.3" y="146.2" fill="#58595B" width="55.4" height="4.7"/>
		</g>
		<g>
			<rect x="76.3" y="64.8" fill="#58595B" width="55.4" height="4.7"/>
		</g>
		<g>
			<g>
				<rect x="94.4" y="57.6" fill="#58595B" width="19.1" height="4.7"/>
			</g>
		</g>
		<g>
			<rect x="101.6" y="154.1" fill="#58595B" width="4.7" height="4.7"/>
		</g>
		<g>
			<g>
				<rect x="82.3" y="134.8" fill="#27AAE1" width="7.7" height="7.7"/>
				<rect x="94.2" y="134.8" fill="#27AAE1" width="7.7" height="7.7"/>
				<rect x="106" y="134.8" fill="#27AAE1" width="7.7" height="7.7"/>
				<rect x="117.8" y="134.8" fill="#27AAE1" width="7.7" height="7.7"/>
			</g>
			<g>
				<rect x="82.3" y="74.5" fill="#27AAE1" width="7.7" height="7.7"/>
				<rect x="94.2" y="74.5" fill="#27AAE1" width="7.7" height="7.7"/>
				<rect x="106" y="74.5" fill="#27AAE1" width="7.7" height="7.7"/>
				<rect x="117.8" y="74.5" fill="#27AAE1" width="7.7" height="7.7"/>
			</g>
			<g>
				<rect x="82.3" y="86.1" fill="#27AAE1" width="7.7" height="7.7"/>
				<rect x="94.2" y="86.1" fill="#27AAE1" width="7.7" height="7.7"/>
				<rect x="106" y="86.1" fill="#27AAE1" width="7.7" height="7.7"/>
				<rect x="117.8" y="86.1" fill="#27AAE1" width="7.7" height="7.7"/>
			</g>
			<g>
				<rect x="82.3" y="97.8" fill="#27AAE1" width="7.7" height="7.7"/>
				<rect x="94.2" y="97.8" fill="#27AAE1" width="7.7" height="7.7"/>
				<rect x="106" y="97.8" fill="#27AAE1" width="7.7" height="7.7"/>
			</g>
		</g>
	</g>
	<g display="inline">
		<g>
			<path fill="#29A8E0" stroke="#58595B" stroke-width="2.0252" stroke-miterlimit="10" d="M144.9,169.4l4.1-1.9
				c0.8-0.4,1.2-1.4,0.8-2.2l-1.6-3.5c-0.4-0.8-0.1-2,0.5-2.6l4-4.4c0.5-0.7,1.7-1.1,2.5-0.8l3.7,1.3c0.9,0.3,1.8-0.1,2.1-1l1.5-4.2
				c0.3-0.9-0.1-1.8-1-2.1l-3.7-1.3c-0.8-0.3-1.5-1.3-1.4-2.2l-0.2-5.9c-0.1-0.9,0.4-1.9,1.2-2.3l3.5-1.6c0.8-0.4,1.2-1.4,0.8-2.2
				l-1.9-4.1c-0.4-0.8-1.4-1.2-2.2-0.8l-3.5,1.6c-0.8,0.4-2,0.1-2.6-0.5l-4.4-4c-0.7-0.5-1.1-1.7-0.8-2.5l1.3-3.7
				c0.3-0.8-0.1-1.8-1-2.1l-4.2-1.5c-0.9-0.3-1.8,0.1-2.1,1l-1.3,3.7c-0.3,0.9-1.3,1.5-2.2,1.4l-5.9,0.2c-0.9,0.1-1.9-0.4-2.3-1.2
				l-1.7-3.5c-0.4-0.8-1.4-1.2-2.2-0.8l-4.1,1.9c-0.8,0.4-1.2,1.4-0.8,2.2l1.6,3.5c0.4,0.8,0.1,2-0.5,2.6l-4,4.4
				c-0.5,0.7-1.7,1.1-2.5,0.8l-3.7-1.3c-0.8-0.3-1.8,0.1-2.1,1l-1.5,4.2c-0.3,0.8,0.1,1.8,1,2.1l3.7,1.3c0.8,0.3,1.5,1.3,1.4,2.2
				l0.2,5.9c0.1,0.9-0.4,1.9-1.2,2.3l-3.5,1.6c-0.8,0.4-1.2,1.4-0.8,2.2l1.9,4.1c0.4,0.8,1.4,1.2,2.2,0.8l3.5-1.6
				c0.8-0.4,2-0.1,2.6,0.5l4.4,4c0.7,0.5,1.1,1.7,0.8,2.5l-1.3,3.7c-0.3,0.8,0.1,1.8,1,2.1l4.2,1.5c0.8,0.3,1.8-0.1,2.1-1l1.3-3.7
				c0.3-0.9,1.3-1.5,2.2-1.4l5.9-0.2c0.9-0.1,1.9,0.4,2.3,1.2l1.7,3.5C143.1,169.4,144.1,169.7,144.9,169.4z M130.4,154.8
				c-6.8-2.5-10.3-10-7.8-16.8c2.5-6.8,10-10.3,16.8-7.8c6.8,2.5,10.3,10,7.8,16.8C144.7,153.8,137.2,157.3,130.4,154.8z"/>
		</g>
		<g>
			<path fill="#29A8E0" stroke="#58595B" stroke-width="2.0252" stroke-miterlimit="10" d="M127.1,170.3l-4.2-1.5
				c-0.9-0.3-1.4-1.4-1.1-2.3l1.3-3.7c0.3-0.8,0-1.8-0.7-2.3l-4.4-4c-0.6-0.6-1.6-0.9-2.4-0.5l-3.5,1.6c-0.4,0.2-0.9,0.2-1.4,0.1
				l0,0c-0.5-0.2-0.8-0.5-1-0.9l-1.9-4.1c-0.2-0.4-0.2-0.9-0.1-1.4c0.2-0.5,0.5-0.8,0.9-1l3.5-1.6c0.8-0.4,1.3-1.3,1.1-2.1l-0.2-5.9
				c0.1-0.8-0.5-1.8-1.3-2.1l-3.7-1.3c-0.9-0.3-1.4-1.4-1.1-2.3l1.5-4.2c0.3-0.9,1.4-1.4,2.3-1.1l3.7,1.3l0,0c0.8,0.3,1.8,0,2.3-0.7
				l4-4.4c0.6-0.6,0.9-1.6,0.5-2.4l-1.6-3.5c-0.2-0.4-0.2-0.9-0.1-1.4c0.2-0.5,0.5-0.8,0.9-1l4.1-1.9c0.4-0.2,0.9-0.2,1.4-0.1l0,0
				c0.5,0.2,0.8,0.5,1,0.9l1.7,3.5c0.3,0.7,1.3,1.3,2.1,1.1l5.9-0.2c0.9,0.1,1.8-0.5,2-1.3l1.3-3.7c0.3-0.9,1.4-1.4,2.3-1.1l4.2,1.5
				c0.9,0.3,1.4,1.4,1.1,2.3l-1.3,3.7c-0.3,0.8,0,1.8,0.7,2.3l4.4,4c0.6,0.6,1.6,0.9,2.4,0.5l3.5-1.6c0.9-0.4,2,0,2.4,0.9l1.9,4.1
				c0.2,0.4,0.2,0.9,0.1,1.4c-0.2,0.5-0.5,0.8-0.9,1l-3.5,1.6c-0.8,0.4-1.3,1.3-1.1,2.1l0.2,5.9c-0.1,0.8,0.6,1.8,1.3,2.1
				c0,0,0,0,0,0l3.7,1.3c0.9,0.3,1.4,1.4,1.1,2.3l-1.5,4.2c-0.2,0.5-0.5,0.8-0.9,1c-0.4,0.2-0.9,0.2-1.4,0.1c0,0,0,0,0,0l-3.7-1.3
				c-0.8-0.3-1.8,0-2.3,0.7l-4,4.4c-0.6,0.6-0.9,1.6-0.5,2.4l1.6,3.5c0.2,0.4,0.2,0.9,0.1,1.4c-0.2,0.5-0.5,0.8-0.9,1l-4.1,1.9
				c-0.4,0.2-0.9,0.2-1.4,0.1l0,0c-0.5-0.2-0.8-0.5-1-0.9l-1.7-3.5c-0.4-0.8-1.3-1.3-2.1-1.1l-5.9,0.2c-0.8-0.1-1.8,0.5-2.1,1.3
				l-1.3,3.7C129.1,170.1,128.1,170.6,127.1,170.3z M117.4,155.6c0.4,0.1,0.7,0.3,0.9,0.6l4.3,4c0.8,0.6,1.1,1.8,0.8,2.7l-1.3,3.7
				c-0.3,0.8,0.1,1.6,0.9,1.9l4.2,1.5c0.8,0.3,1.6-0.1,1.9-0.9l1.3-3.7c0.3-0.9,1.4-1.6,2.4-1.5l5.9-0.2c0.9-0.1,2.1,0.5,2.5,1.3
				l1.7,3.5c0.2,0.4,0.5,0.6,0.8,0.8c0,0,0,0,0,0c0.4,0.1,0.8,0.1,1.1-0.1l0,0l4.1-1.9c0.4-0.2,0.6-0.5,0.8-0.8
				c0.1-0.4,0.1-0.8-0.1-1.1l-1.6-3.5c-0.4-0.9-0.1-2.1,0.6-2.8l4-4.3c0.6-0.8,1.8-1.1,2.7-0.8l3.7,1.3l0,0c0.4,0.1,0.8,0.1,1.1,0
				c0.4-0.2,0.6-0.5,0.8-0.8l1.5-4.2c0.3-0.8-0.1-1.6-0.9-1.9l-3.7-1.3l0,0c-0.9-0.3-1.6-1.4-1.6-2.4l-0.2-5.9
				c-0.1-0.9,0.5-2.1,1.3-2.5l3.5-1.6c0.4-0.2,0.6-0.5,0.8-0.8c0.1-0.4,0.1-0.8-0.1-1.1l-1.9-4.1c-0.3-0.7-1.2-1.1-2-0.7l-3.5,1.6
				c-0.9,0.4-2.1,0.2-2.8-0.6l-4.3-4c-0.8-0.6-1.1-1.8-0.8-2.7l1.3-3.7c0.3-0.8-0.1-1.6-0.9-1.9l-4.2-1.5c-0.8-0.3-1.6,0.1-1.9,0.9
				l-1.3,3.7c-0.3,0.9-1.4,1.6-2.4,1.6l-5.9,0.2c-0.9,0.1-2.1-0.5-2.5-1.3l-1.7-3.5c-0.2-0.4-0.5-0.6-0.8-0.8l0,0
				c-0.4-0.1-0.8-0.1-1.1,0l-4.1,1.9c-0.4,0.2-0.6,0.5-0.8,0.8c-0.1,0.4-0.1,0.8,0,1.1l1.6,3.5c0.4,0.9,0.1,2.1-0.6,2.8l-4,4.3
				c-0.6,0.8-1.8,1.1-2.7,0.8l0,0l-3.7-1.3c-0.8-0.3-1.6,0.1-1.9,0.9l-1.5,4.2c-0.3,0.8,0.1,1.6,0.9,1.9l3.7,1.3
				c0.9,0.3,1.6,1.4,1.5,2.4l0.2,5.9c0.1,0.9-0.5,2.1-1.3,2.5l-3.5,1.6c-0.4,0.2-0.6,0.5-0.8,0.8c-0.1,0.4-0.1,0.8,0,1.1l1.9,4.1
				c0.2,0.4,0.5,0.6,0.8,0.8c0,0,0,0,0,0c0.4,0.1,0.8,0.1,1.1-0.1l3.5-1.6C116.1,155.3,116.8,155.3,117.4,155.6z M130.3,155
				c-3.3-1.2-6-3.7-7.5-6.9c-1.5-3.2-1.6-6.8-0.4-10.1c2.5-6.9,10.1-10.4,17-7.9c6.9,2.5,10.4,10.1,7.9,17
				C144.8,153.9,137.2,157.5,130.3,155L130.3,155C130.3,155,130.3,155,130.3,155z M139.3,130.4c-6.7-2.4-14.1,1-16.6,7.7
				c-1.2,3.2-1,6.8,0.4,9.9c1.5,3.1,4,5.5,7.3,6.7c0,0,0,0,0,0l0,0c6.7,2.4,14.1-1,16.6-7.7C149.5,140.3,146,132.8,139.3,130.4z"/>
		</g>
	</g>
	<g display="inline">
		<g>
			<path fill="#29A8E0" stroke="#58595B" stroke-width="1.314" stroke-miterlimit="10" d="M152.2,114.7l2.9,0.3
				c0.6,0.1,1.1-0.4,1.2-1l0.2-2.5c0.1-0.6,0.6-1.2,1.1-1.3l3.6-1.2c0.5-0.2,1.3-0.1,1.7,0.4l1.6,1.9c0.4,0.5,1.1,0.5,1.5,0.1
				l2.2-1.9c0.5-0.4,0.5-1,0.1-1.5l-1.6-1.9c-0.4-0.4-0.4-1.2-0.1-1.7l1.8-3.4c0.2-0.5,0.9-1,1.5-0.9l2.5,0.2c0.6,0.1,1.1-0.4,1.2-1
				l0.3-2.9c0-0.6-0.4-1.1-1-1.2l-2.5-0.2c-0.6-0.1-1.2-0.6-1.3-1.1l-1.2-3.7c-0.2-0.5-0.1-1.3,0.4-1.7l1.9-1.6
				c0.4-0.4,0.5-1.1,0.1-1.5l-1.9-2.2c-0.4-0.5-1.1-0.5-1.5-0.1l-1.9,1.6c-0.5,0.4-1.2,0.4-1.7,0.1l-3.4-1.8
				c-0.5-0.2-0.9-0.9-0.9-1.5l0.2-2.5c0.1-0.6-0.4-1.1-1-1.2l-2.9-0.3c-0.6-0.1-1.1,0.4-1.2,1l-0.2,2.5c-0.1,0.6-0.6,1.2-1.1,1.3
				l-3.7,1.2c-0.5,0.2-1.3,0.1-1.7-0.4l-1.6-1.9c-0.4-0.4-1-0.5-1.5-0.1l-2.2,1.9c-0.4,0.4-0.5,1-0.1,1.5l1.6,1.9
				c0.4,0.4,0.4,1.2,0.1,1.7l-1.8,3.4c-0.2,0.5-0.9,0.9-1.4,0.9l-2.5-0.2c-0.6-0.1-1.1,0.4-1.2,1l-0.3,2.9c-0.1,0.6,0.4,1.1,1,1.2
				l2.5,0.2c0.6,0.1,1.2,0.6,1.3,1.1l1.2,3.7c0.2,0.5,0.1,1.3-0.4,1.7l-1.9,1.6c-0.4,0.4-0.5,1-0.1,1.5l1.9,2.2
				c0.4,0.4,1.1,0.5,1.5,0.1l1.9-1.6c0.5-0.4,1.2-0.4,1.7-0.1l3.4,1.8c0.5,0.2,1,0.9,0.9,1.4l-0.2,2.5
				C151.2,114.2,151.6,114.7,152.2,114.7z M148.8,101.9c-3-3.6-2.5-9,1-12c3.6-3,9-2.5,12,1.1c3,3.6,2.5,9-1.1,12
				C157.1,105.9,151.8,105.5,148.8,101.9z"/>
		</g>
		<g>
			<path fill="#29A8E0" stroke="#58595B" stroke-width="1.314" stroke-miterlimit="10" d="M141.9,109.5l-1.9-2.2
				c-0.4-0.5-0.4-1.2,0.1-1.7l1.9-1.6c0.4-0.3,0.6-1,0.4-1.5l-1.2-3.7c-0.1-0.5-0.6-1-1.2-1.1l-2.5-0.2c-0.3,0-0.6-0.2-0.8-0.4l0,0
				c-0.2-0.2-0.3-0.5-0.3-0.9l0.3-2.9c0-0.3,0.2-0.6,0.4-0.8c0.2-0.2,0.5-0.3,0.9-0.3l2.5,0.2c0.5,0,1.1-0.3,1.3-0.8l1.8-3.4
				c0.3-0.5,0.3-1.2-0.1-1.6l-1.6-1.9c-0.4-0.5-0.4-1.2,0.1-1.7l2.2-1.9c0.5-0.4,1.2-0.4,1.7,0.1l1.6,1.9l0,0c0.3,0.4,1,0.6,1.5,0.4
				l3.7-1.2c0.5-0.1,1-0.6,1.1-1.2l0.2-2.5c0-0.3,0.2-0.6,0.4-0.8c0.2-0.2,0.5-0.3,0.9-0.3l2.9,0.3c0.3,0,0.6,0.2,0.8,0.4
				c0,0,0,0,0,0c0.2,0.2,0.3,0.5,0.3,0.9l-0.2,2.5c0,0.5,0.3,1.1,0.8,1.3l3.4,1.8c0.5,0.3,1.2,0.3,1.6-0.1l1.9-1.6
				c0.5-0.4,1.2-0.4,1.7,0.1l1.9,2.2c0.4,0.5,0.3,1.2-0.1,1.7l-1.9,1.6c-0.4,0.3-0.6,1-0.4,1.5l1.2,3.7c0.1,0.5,0.6,1,1.2,1.1
				l2.5,0.2c0.6,0.1,1.1,0.6,1.1,1.3l-0.3,2.9c0,0.3-0.2,0.6-0.4,0.8c-0.2,0.2-0.5,0.3-0.9,0.3l-2.5-0.2c-0.5,0-1.1,0.3-1.3,0.8
				l-1.8,3.4c-0.3,0.5-0.3,1.2,0.1,1.6l0,0l1.6,1.9c0.4,0.5,0.4,1.2-0.1,1.7l-2.2,1.9c-0.2,0.2-0.5,0.3-0.9,0.3
				c-0.3,0-0.6-0.2-0.8-0.4c0,0,0,0,0,0l-1.6-1.9c-0.3-0.4-1-0.6-1.5-0.4l-3.7,1.2c-0.5,0.1-1,0.6-1.1,1.2l-0.2,2.5
				c0,0.3-0.2,0.6-0.4,0.8c-0.2,0.2-0.5,0.3-0.9,0.3l-2.9-0.3c-0.3,0-0.6-0.2-0.8-0.4c0,0,0,0,0,0c-0.2-0.2-0.3-0.5-0.3-0.9l0.2-2.5
				c0-0.5-0.3-1.1-0.8-1.3l-3.4-1.8c-0.5-0.3-1.2-0.3-1.6,0.1l-1.9,1.6C143.1,110,142.3,110,141.9,109.5z M141.2,98.1
				c0.2,0.2,0.3,0.4,0.3,0.7l1.2,3.6c0.3,0.6,0.1,1.4-0.4,1.8l-1.9,1.6c-0.4,0.3-0.5,0.9-0.1,1.3l1.9,2.2c0.3,0.4,0.9,0.5,1.3,0.1
				l1.9-1.6c0.5-0.4,1.3-0.5,1.8-0.1l3.4,1.8c0.6,0.2,1,0.9,1,1.6l-0.2,2.5c0,0.3,0.1,0.5,0.2,0.7l0,0c0.2,0.2,0.4,0.3,0.7,0.3l0,0
				l2.9,0.3c0.3,0,0.5-0.1,0.7-0.2c0.2-0.2,0.3-0.4,0.3-0.7l0.2-2.5c0.1-0.6,0.6-1.2,1.2-1.4l3.6-1.2c0.6-0.3,1.4-0.1,1.8,0.4
				l1.6,1.9c0,0,0,0,0,0c0.2,0.2,0.4,0.3,0.6,0.3c0.3,0,0.5-0.1,0.7-0.2l2.2-1.9c0.4-0.3,0.5-0.9,0.1-1.3l-1.6-1.9l0,0
				c-0.4-0.5-0.5-1.3-0.1-1.8l1.8-3.4c0.2-0.6,0.9-1,1.6-1l2.5,0.2c0.3,0,0.5-0.1,0.7-0.2c0.2-0.2,0.3-0.4,0.3-0.6l0.3-2.9
				c0-0.5-0.3-1-0.9-1l-2.5-0.2c-0.6-0.1-1.2-0.6-1.4-1.2l-1.2-3.6c-0.2-0.6-0.1-1.4,0.4-1.8l1.9-1.6c0.4-0.3,0.5-0.9,0.1-1.3
				l-1.9-2.2c-0.3-0.4-0.9-0.5-1.3-0.1l-1.9,1.6c-0.5,0.4-1.3,0.5-1.8,0.1l-3.4-1.8c-0.6-0.2-1-0.9-1-1.6l0.2-2.5
				c0-0.3-0.1-0.5-0.2-0.7l0,0c-0.2-0.2-0.4-0.3-0.6-0.3l-2.9-0.3c-0.3,0-0.5,0.1-0.7,0.2c-0.2,0.2-0.3,0.4-0.3,0.7l-0.2,2.5
				c-0.1,0.6-0.6,1.2-1.2,1.4l-3.6,1.2c-0.6,0.3-1.4,0.1-1.8-0.4c0,0,0,0,0,0l-1.6-1.9c-0.3-0.4-0.9-0.5-1.3-0.1l-2.2,1.9
				c-0.4,0.3-0.5,0.9-0.1,1.3l1.6,1.9c0.4,0.5,0.5,1.3,0.1,1.8l-1.8,3.4c-0.2,0.6-0.9,1-1.6,1l-2.5-0.2c-0.3,0-0.5,0.1-0.7,0.2
				c-0.2,0.2-0.3,0.4-0.3,0.6l-0.3,2.9c0,0.3,0.1,0.5,0.2,0.7l0,0c0.2,0.2,0.4,0.3,0.6,0.3l2.5,0.2C140.6,97.5,141,97.7,141.2,98.1z
				 M148.7,101.9c-1.5-1.8-2.2-4-2-6.3c0.2-2.3,1.3-4.4,3-5.8c3.6-3.1,9.1-2.6,12.1,1.1c3.1,3.6,2.6,9.1-1.1,12.1
				C157.2,106,151.7,105.6,148.7,101.9L148.7,101.9C148.7,101.9,148.7,101.9,148.7,101.9z M161.7,91c-3-3.5-8.3-4-11.8-1
				c-1.7,1.4-2.8,3.5-3,5.7c-0.2,2.2,0.5,4.4,1.9,6.1c0,0,0,0,0,0l0,0c3,3.5,8.3,4,11.8,1C164.2,99.8,164.7,94.5,161.7,91z"/>
		</g>
	</g>
</g>
<g display="none">
	<g display="inline">
		<g>
			<path fill="#29A8E0" stroke="#58595B" stroke-width="1.4099" stroke-miterlimit="10" d="M146.5,104.7l3.1-0.4
				c0.6-0.1,1.1-0.6,1-1.3l-0.3-2.7c-0.1-0.6,0.3-1.3,0.9-1.6l3.6-2c0.5-0.4,1.3-0.3,1.8,0l2.1,1.7c0.5,0.4,1.2,0.3,1.6-0.2l1.9-2.5
				c0.4-0.5,0.3-1.2-0.2-1.6l-2.1-1.7c-0.5-0.4-0.7-1.2-0.5-1.8l1.1-4c0.1-0.6,0.7-1.2,1.3-1.3l2.7-0.3c0.6-0.1,1.1-0.6,1-1.3
				l-0.4-3.1c-0.1-0.6-0.6-1.1-1.3-1l-2.7,0.3c-0.6,0.1-1.3-0.3-1.6-0.9l-2-3.6c-0.4-0.5-0.3-1.3,0-1.8l1.7-2.1
				c0.4-0.5,0.3-1.2-0.2-1.6l-2.5-1.9c-0.5-0.4-1.2-0.3-1.6,0.2l-1.7,2.1c-0.4,0.5-1.2,0.7-1.8,0.5l-4-1.1c-0.6-0.1-1.2-0.7-1.3-1.3
				l-0.3-2.7c-0.1-0.6-0.6-1.1-1.3-1l-3.1,0.4c-0.6,0.1-1.1,0.6-1,1.3l0.3,2.7c0.1,0.6-0.3,1.3-0.9,1.6l-3.6,2
				c-0.5,0.4-1.3,0.3-1.8,0l-2.1-1.7c-0.5-0.4-1.2-0.3-1.6,0.2l-1.9,2.5c-0.4,0.5-0.3,1.2,0.2,1.6l2.1,1.7c0.5,0.4,0.7,1.2,0.5,1.8
				l-1.1,4c-0.1,0.6-0.7,1.2-1.3,1.3l-2.7,0.3c-0.6,0.1-1.1,0.6-1,1.3l0.4,3.1c0.1,0.6,0.6,1.1,1.3,1l2.7-0.3
				c0.6-0.1,1.3,0.3,1.6,0.9l2,3.6c0.4,0.5,0.3,1.3,0,1.8l-1.7,2.1c-0.4,0.5-0.3,1.2,0.2,1.6l2.5,1.9c0.5,0.4,1.2,0.3,1.6-0.2
				l1.7-2.1c0.4-0.5,1.2-0.7,1.8-0.5l4,1.1c0.6,0.1,1.2,0.7,1.3,1.3l0.3,2.7C145.3,104.3,145.9,104.7,146.5,104.7z M140.1,91.9
				c-4-3.1-4.6-8.9-1.5-12.8c3.1-4,8.8-4.6,12.8-1.5c4,3.1,4.6,8.9,1.5,12.8C149.8,94.3,144,95,140.1,91.9z"/>
		</g>
		<g>
			<path fill="#29A8E0" stroke="#58595B" stroke-width="1.4099" stroke-miterlimit="10" d="M134.6,101.4l-2.5-1.9
				c-0.5-0.4-0.6-1.2-0.2-1.8l1.7-2.1c0.4-0.5,0.4-1.2,0-1.7l-2-3.6c-0.2-0.5-0.9-0.9-1.5-0.9l-2.7,0.3c-0.3,0-0.7,0-0.9-0.3l0,0
				c-0.3-0.2-0.4-0.5-0.5-0.8l-0.4-3.1c0-0.3,0.1-0.7,0.3-0.9c0.2-0.3,0.5-0.4,0.8-0.5l2.7-0.3c0.6-0.1,1.1-0.6,1.2-1.2l1.1-4
				c0.2-0.5,0-1.3-0.4-1.6l-2.1-1.7c-0.5-0.4-0.6-1.2-0.2-1.8l1.9-2.5c0.4-0.5,1.2-0.6,1.8-0.2l2.1,1.7l0,0c0.5,0.4,1.2,0.4,1.7,0
				l3.6-2c0.5-0.2,0.9-0.9,0.9-1.5l-0.3-2.7c0-0.3,0.1-0.7,0.3-0.9c0.2-0.3,0.5-0.4,0.8-0.5l3.1-0.4c0.3,0,0.7,0.1,0.9,0.3l0,0
				c0.3,0.2,0.4,0.5,0.5,0.8l0.3,2.7c0.1,0.6,0.6,1.1,1.2,1.2l4,1.1c0.6,0.2,1.3,0,1.6-0.4l1.7-2.1c0.4-0.5,1.2-0.6,1.8-0.2l2.5,1.9
				c0.5,0.4,0.6,1.2,0.2,1.8l-1.7,2.1c-0.4,0.5-0.4,1.2,0,1.7l2,3.6c0.2,0.5,0.9,0.9,1.5,0.9l2.7-0.3c0.7-0.1,1.3,0.4,1.4,1.1
				l0.4,3.1c0,0.3,0,0.7-0.3,0.9c-0.2,0.3-0.5,0.4-0.8,0.5l-2.7,0.3c-0.6,0.1-1.1,0.6-1.2,1.2l-1.1,4c-0.2,0.5,0,1.3,0.4,1.6l0,0
				l2.1,1.7c0.5,0.4,0.6,1.2,0.2,1.8l-1.9,2.5c-0.2,0.3-0.5,0.4-0.8,0.5c-0.3,0-0.7-0.1-0.9-0.3c0,0,0,0,0,0l-2.1-1.7
				c-0.5-0.4-1.2-0.4-1.7,0l-3.6,2c-0.5,0.2-0.9,0.9-0.9,1.5l0.3,2.7c0,0.3-0.1,0.7-0.3,0.9c-0.2,0.3-0.5,0.4-0.8,0.5l-3.1,0.4
				c-0.3,0-0.7-0.1-0.9-0.3c0,0,0,0,0,0c-0.3-0.2-0.4-0.5-0.5-0.8l-0.3-2.7c-0.1-0.6-0.6-1.1-1.2-1.2l-4-1.1c-0.5-0.2-1.3,0-1.6,0.4
				l-1.7,2.1C135.9,101.8,135.1,101.8,134.6,101.4z M131.3,89.6c0.2,0.2,0.4,0.4,0.5,0.6l2,3.6c0.4,0.5,0.4,1.4-0.1,2l-1.7,2.1
				c-0.3,0.4-0.3,1.1,0.2,1.4l2.5,1.9c0.4,0.3,1.1,0.3,1.4-0.2l1.7-2.1c0.4-0.5,1.3-0.8,1.9-0.5l3.9,1.1c0.7,0.1,1.3,0.7,1.3,1.4
				l0.3,2.7c0,0.3,0.2,0.5,0.4,0.7l0,0c0.2,0.2,0.5,0.2,0.8,0.2l0,0l3.1-0.4c0.3,0,0.5-0.2,0.7-0.4c0.2-0.2,0.2-0.5,0.2-0.8
				l-0.3-2.7c-0.1-0.7,0.4-1.4,1-1.7l3.6-2c0.5-0.4,1.4-0.4,2,0.1l2.1,1.7l0,0c0.2,0.2,0.5,0.2,0.8,0.2c0.3,0,0.5-0.2,0.7-0.4
				l1.9-2.5c0.3-0.4,0.3-1.1-0.2-1.4l-2.1-1.7c0,0,0,0,0,0c-0.5-0.4-0.8-1.3-0.5-1.9l1.1-3.9c0.1-0.7,0.7-1.3,1.4-1.4l2.7-0.3
				c0.3,0,0.5-0.2,0.7-0.4c0.2-0.2,0.2-0.5,0.2-0.8l-0.4-3.1c-0.1-0.6-0.6-1-1.1-0.9l-2.7,0.3c-0.7,0.1-1.4-0.4-1.7-1l-2-3.6
				c-0.4-0.5-0.4-1.4,0.1-2l1.7-2.1c0.3-0.4,0.3-1.1-0.2-1.4l-2.5-1.9c-0.4-0.3-1.1-0.3-1.4,0.2l-1.7,2.1c-0.4,0.5-1.3,0.8-1.9,0.5
				l-3.9-1.1c-0.7-0.1-1.3-0.8-1.3-1.4l-0.3-2.7c0-0.3-0.2-0.5-0.4-0.7l0,0c-0.2-0.2-0.5-0.2-0.8-0.2l-3.1,0.4
				c-0.3,0-0.5,0.2-0.7,0.4c-0.2,0.2-0.2,0.5-0.2,0.8l0.3,2.7c0.1,0.7-0.4,1.4-1,1.7l-3.6,2c-0.5,0.4-1.4,0.4-2-0.1c0,0,0,0,0,0
				l-2.1-1.7c-0.4-0.3-1.1-0.3-1.4,0.2l-1.9,2.5c-0.3,0.4-0.3,1.1,0.2,1.4l2.1,1.7c0.5,0.4,0.8,1.3,0.5,1.9l-1.1,3.9
				c-0.1,0.7-0.8,1.3-1.4,1.3l-2.7,0.3c-0.3,0-0.5,0.2-0.7,0.4c-0.2,0.2-0.2,0.5-0.2,0.8l0.4,3.1c0,0.3,0.2,0.5,0.4,0.7l0,0
				c0.2,0.2,0.5,0.2,0.8,0.2l2.7-0.3C130.5,89.1,131,89.3,131.3,89.6z M140,92c-1.9-1.5-3.2-3.7-3.5-6.2c-0.3-2.5,0.4-4.9,1.9-6.8
				c3.2-4,9-4.7,13-1.5c4,3.2,4.7,9,1.5,13C149.8,94.5,144,95.1,140,92L140,92L140,92z M151.3,77.7c-3.9-3.1-9.6-2.4-12.6,1.5
				c-1.5,1.9-2.1,4.2-1.9,6.6c0.3,2.4,1.5,4.5,3.4,6l0,0l0,0c3.9,3.1,9.6,2.4,12.6-1.5C155.9,86.4,155.2,80.7,151.3,77.7z"/>
		</g>
	</g>
	<g display="inline">
		<g>
			<path fill="#29A8E0" stroke="#58595B" stroke-width="0.7638" stroke-miterlimit="10" d="M79.6,123.5l1.5-0.7
				c0.3-0.1,0.4-0.5,0.3-0.8l-0.6-1.3c-0.1-0.3,0-0.7,0.2-1l1.5-1.6c0.2-0.3,0.6-0.4,1-0.3l1.4,0.5c0.3,0.1,0.7,0,0.8-0.4l0.6-1.6
				c0.1-0.3,0-0.7-0.4-0.8l-1.4-0.5c-0.3-0.1-0.6-0.5-0.5-0.8l-0.1-2.2c-0.1-0.3,0.2-0.7,0.5-0.9l1.3-0.6c0.3-0.1,0.4-0.5,0.3-0.8
				l-0.7-1.5c-0.1-0.3-0.5-0.4-0.8-0.3l-1.3,0.6c-0.3,0.1-0.7,0.1-1-0.2l-1.6-1.5c-0.3-0.2-0.4-0.6-0.3-1l0.5-1.4
				c0.1-0.3,0-0.7-0.4-0.8l-1.6-0.6c-0.3-0.1-0.7,0.1-0.8,0.4l-0.5,1.4c-0.1,0.3-0.5,0.6-0.8,0.5l-2.2,0.1c-0.3,0.1-0.7-0.2-0.9-0.5
				l-0.6-1.3c-0.1-0.3-0.5-0.4-0.8-0.3l-1.5,0.7c-0.3,0.1-0.4,0.5-0.3,0.8l0.6,1.3c0.1,0.3,0,0.7-0.2,1l-1.5,1.6
				c-0.2,0.3-0.6,0.4-1,0.3l-1.4-0.5c-0.3-0.1-0.7,0-0.8,0.4l-0.6,1.6c-0.1,0.3,0.1,0.7,0.4,0.8l1.4,0.5c0.3,0.1,0.6,0.5,0.5,0.8
				l0.1,2.2c0,0.3-0.2,0.7-0.5,0.9l-1.3,0.6c-0.3,0.1-0.4,0.5-0.3,0.8l0.7,1.5c0.1,0.3,0.5,0.4,0.8,0.3l1.3-0.6
				c0.3-0.1,0.7-0.1,1,0.2l1.6,1.5c0.3,0.2,0.4,0.6,0.3,0.9l-0.5,1.4c-0.1,0.3,0,0.7,0.4,0.8l1.6,0.6c0.3,0.1,0.7-0.1,0.8-0.4
				l0.5-1.4c0.1-0.3,0.5-0.6,0.8-0.5l2.2-0.1c0.3-0.1,0.7,0.2,0.9,0.5l0.6,1.3C78.9,123.6,79.3,123.7,79.6,123.5z M74.1,118.1
				c-2.6-0.9-3.9-3.8-2.9-6.3c0.9-2.6,3.8-3.9,6.3-2.9c2.6,0.9,3.9,3.8,2.9,6.3C79.5,117.7,76.7,119,74.1,118.1z"/>
		</g>
		<g>
			<path fill="#29A8E0" stroke="#58595B" stroke-width="0.7638" stroke-miterlimit="10" d="M72.9,123.9l-1.6-0.6
				c-0.4-0.1-0.5-0.5-0.4-0.9l0.5-1.4c0.1-0.3,0-0.7-0.3-0.9l-1.6-1.5c-0.2-0.2-0.6-0.3-0.9-0.2l-1.3,0.6c-0.2,0.1-0.4,0.1-0.5,0
				l0,0c-0.2-0.1-0.3-0.2-0.4-0.4l-0.7-1.5c-0.1-0.2-0.1-0.4,0-0.5c0.1-0.2,0.2-0.3,0.4-0.4l1.3-0.6c0.3-0.1,0.5-0.5,0.4-0.8
				l-0.1-2.2c0-0.3-0.2-0.7-0.5-0.8l-1.4-0.5c-0.4-0.1-0.5-0.5-0.4-0.9l0.6-1.6c0.1-0.4,0.5-0.5,0.9-0.4l1.4,0.5l0,0
				c0.3,0.1,0.7,0,0.9-0.3l1.5-1.6c0.2-0.2,0.3-0.6,0.2-0.9l-0.6-1.3c-0.1-0.2-0.1-0.4,0-0.5c0.1-0.2,0.2-0.3,0.4-0.4l1.5-0.7
				c0.2-0.1,0.4-0.1,0.5,0l0,0c0.2,0.1,0.3,0.2,0.4,0.4l0.6,1.3c0.1,0.3,0.5,0.5,0.8,0.4l2.2-0.1c0.3,0,0.7-0.2,0.8-0.5l0.5-1.4
				c0.1-0.4,0.5-0.5,0.9-0.4l1.6,0.6c0.4,0.1,0.5,0.5,0.4,0.9l-0.5,1.4c-0.1,0.3,0,0.7,0.3,0.9l1.6,1.5c0.2,0.2,0.6,0.3,0.9,0.2
				l1.3-0.6c0.3-0.2,0.7,0,0.9,0.3l0.7,1.5c0.1,0.2,0.1,0.3,0,0.5c-0.1,0.2-0.2,0.3-0.4,0.4l-1.3,0.6c-0.3,0.1-0.5,0.5-0.4,0.8
				l0.1,2.2c0,0.3,0.2,0.7,0.5,0.8l0,0l1.4,0.5c0.4,0.1,0.5,0.5,0.4,0.9l-0.6,1.6c-0.1,0.2-0.2,0.3-0.4,0.4c-0.2,0.1-0.4,0.1-0.5,0
				c0,0,0,0,0,0l-1.4-0.5c-0.3-0.1-0.7,0-0.9,0.3l-1.5,1.6c-0.2,0.2-0.3,0.6-0.2,0.9l0.6,1.3c0.1,0.2,0.1,0.4,0,0.5
				c-0.1,0.2-0.2,0.3-0.4,0.4l-1.5,0.7c-0.2,0.1-0.4,0.1-0.5,0l0,0c-0.2-0.1-0.3-0.2-0.4-0.4l-0.6-1.3c-0.1-0.3-0.5-0.5-0.8-0.4
				l-2.2,0.1c-0.3,0-0.7,0.2-0.8,0.5l-0.5,1.4C73.6,123.8,73.2,124,72.9,123.9z M69.2,118.3c0.1,0.1,0.3,0.1,0.4,0.2l1.6,1.5
				c0.3,0.2,0.4,0.7,0.3,1l-0.5,1.4c-0.1,0.3,0,0.6,0.3,0.7l1.6,0.6c0.3,0.1,0.6,0,0.7-0.3l0.5-1.4c0.1-0.3,0.5-0.6,0.9-0.6l2.2-0.1
				c0.4-0.1,0.8,0.2,0.9,0.5l0.6,1.3c0.1,0.1,0.2,0.2,0.3,0.3l0,0c0.1,0.1,0.3,0,0.4,0l0,0l1.5-0.7c0.1-0.1,0.2-0.2,0.3-0.3
				c0.1-0.1,0-0.3,0-0.4l-0.6-1.3c-0.2-0.3-0.1-0.8,0.2-1l1.5-1.6c0.2-0.3,0.7-0.4,1-0.3l1.4,0.5l0,0c0.1,0.1,0.3,0,0.4,0
				c0.1-0.1,0.2-0.2,0.3-0.3l0.6-1.6c0.1-0.3,0-0.6-0.3-0.7l-1.4-0.5l0,0c-0.3-0.1-0.6-0.5-0.6-0.9l-0.1-2.2
				c-0.1-0.4,0.2-0.8,0.5-0.9l1.3-0.6c0.1-0.1,0.2-0.2,0.3-0.3c0.1-0.1,0-0.3,0-0.4l-0.7-1.5c-0.1-0.3-0.5-0.4-0.7-0.3l-1.3,0.6
				c-0.3,0.2-0.8,0.1-1-0.2l-1.6-1.5c-0.3-0.2-0.4-0.7-0.3-1l0.5-1.4c0.1-0.3,0-0.6-0.3-0.7l-1.6-0.6c-0.3-0.1-0.6,0-0.7,0.3
				l-0.5,1.4c-0.1,0.3-0.5,0.6-0.9,0.6l-2.2,0.1c-0.4,0.1-0.8-0.2-0.9-0.5l-0.6-1.3c-0.1-0.1-0.2-0.2-0.3-0.3l0,0
				c-0.1-0.1-0.3,0-0.4,0l-1.5,0.7c-0.1,0.1-0.2,0.2-0.3,0.3c-0.1,0.1,0,0.3,0,0.4l0.6,1.3c0.2,0.3,0.1,0.8-0.2,1l-1.5,1.6
				c-0.2,0.3-0.7,0.4-1,0.3l0,0l-1.4-0.5c-0.3-0.1-0.6,0-0.7,0.3l-0.6,1.6c-0.1,0.3,0,0.6,0.3,0.7l1.4,0.5c0.3,0.1,0.6,0.5,0.6,0.9
				l0.1,2.2c0.1,0.4-0.2,0.8-0.5,0.9l-1.3,0.6c-0.1,0.1-0.2,0.2-0.3,0.3c-0.1,0.1,0,0.3,0,0.4l0.7,1.5c0.1,0.1,0.2,0.2,0.3,0.3l0,0
				c0.1,0.1,0.3,0,0.4,0l1.3-0.6C68.7,118.3,69,118.3,69.2,118.3z M74.1,118.1c-1.3-0.5-2.3-1.4-2.8-2.6c-0.6-1.2-0.6-2.6-0.2-3.8
				c0.9-2.6,3.8-3.9,6.4-3c2.6,0.9,3.9,3.8,3,6.4C79.6,117.7,76.7,119.1,74.1,118.1L74.1,118.1L74.1,118.1z M77.5,108.8
				c-2.5-0.9-5.3,0.4-6.3,2.9c-0.4,1.2-0.4,2.5,0.2,3.7c0.5,1.2,1.5,2.1,2.7,2.5l0,0l0,0c2.5,0.9,5.3-0.4,6.3-2.9
				C81.3,112.6,80,109.8,77.5,108.8z"/>
		</g>
	</g>
	<g display="inline">
		<path fill="#27AAE1" d="M136.5,162.3c0,2-1.6,3.6-3.6,3.6H82.9c-2,0-3.6-1.6-3.6-3.6V56.8c0-2,1.6-3.6,3.6-3.6H133
			c2,0,3.6,1.6,3.6,3.6V162.3z"/>
		<path fill="#F1F2F2" d="M136.5,149.1c0,1.5-1.6,2.6-3.6,2.6H82.9c-2,0-3.6-1.2-3.6-2.6V71.2c0-1.5,1.6-2.6,3.6-2.6H133
			c2,0,3.6,1.2,3.6,2.6V149.1z"/>
		<path fill="#58595B" d="M133,168.2H82.9c-3.3,0-5.9-2.7-5.9-5.9V56.8c0-3.3,2.7-5.9,5.9-5.9H133c3.3,0,5.9,2.7,5.9,5.9v105.5
			C138.9,165.5,136.2,168.2,133,168.2z M82.9,55.5c-0.7,0-1.2,0.6-1.2,1.2v105.5c0,0.7,0.6,1.2,1.2,1.2H133c0.7,0,1.2-0.6,1.2-1.2
			V56.8c0-0.7-0.6-1.2-1.2-1.2H82.9z"/>
		<g>
			<rect x="80.2" y="147.4" fill="#58595B" width="55.4" height="4.7"/>
		</g>
		<g>
			<rect x="80.2" y="66.1" fill="#58595B" width="55.4" height="4.7"/>
		</g>
		<g>
			<g>
				<rect x="98.4" y="58.9" fill="#58595B" width="19.1" height="4.7"/>
			</g>
		</g>
		<g>
			<rect x="105.6" y="155.4" fill="#58595B" width="4.7" height="4.7"/>
		</g>
		<g>
			<rect x="86.3" y="75.7" fill="#27AAE1" width="7.7" height="7.7"/>
			<rect x="98.2" y="75.7" fill="#27AAE1" width="7.7" height="7.7"/>
			<rect x="110" y="75.7" fill="#27AAE1" width="7.7" height="7.7"/>
			<rect x="121.8" y="75.7" fill="#27AAE1" width="7.7" height="7.7"/>
		</g>
		<g>
			<rect x="86.3" y="87.4" fill="#27AAE1" width="7.7" height="7.7"/>
			<rect x="98.2" y="87.4" fill="#27AAE1" width="7.7" height="7.7"/>
			<rect x="110" y="87.4" fill="#27AAE1" width="7.7" height="7.7"/>
			<rect x="121.8" y="87.4" fill="#27AAE1" width="7.7" height="7.7"/>
		</g>
		<g>
			<rect x="86.3" y="99.1" fill="#27AAE1" width="7.7" height="7.7"/>
			<rect x="98.2" y="99.1" fill="#27AAE1" width="7.7" height="7.7"/>
			<rect x="110" y="99.1" fill="#27AAE1" width="7.7" height="7.7"/>
		</g>
		<g>
			<defs>
				<rect id="SVGID_1_" x="81.6" y="102.9" width="52.5" height="44.5"/>
			</defs>
			<clipPath id="SVGID_2_">
				<use xlink:href="#SVGID_1_"  overflow="visible"/>
			</clipPath>
			<g clip-path="url(#SVGID_2_)">
				<g>
					<path fill="#29A8E0" stroke="#58595B" stroke-width="2.0252" stroke-miterlimit="10" d="M131.8,165.8l4.1-1.9
						c0.8-0.4,1.2-1.4,0.8-2.2l-1.6-3.5c-0.4-0.8-0.1-2,0.5-2.6l4-4.4c0.5-0.7,1.7-1.1,2.5-0.8l3.7,1.3c0.9,0.3,1.8-0.1,2.1-1
						l1.5-4.2c0.3-0.9-0.1-1.8-1-2.1l-3.7-1.3c-0.8-0.3-1.5-1.3-1.4-2.2l-0.2-5.9c-0.1-0.9,0.4-1.9,1.2-2.3l3.5-1.6
						c0.8-0.4,1.2-1.4,0.8-2.2l-1.9-4.1c-0.4-0.8-1.4-1.2-2.2-0.8l-3.5,1.6c-0.8,0.4-2,0.1-2.6-0.5l-4.4-4c-0.7-0.5-1.1-1.7-0.8-2.5
						l1.3-3.7c0.3-0.8-0.1-1.8-1-2.1l-4.2-1.5c-0.9-0.3-1.8,0.1-2.1,1l-1.3,3.7c-0.3,0.9-1.3,1.5-2.2,1.4l-5.9,0.2
						c-0.9,0.1-1.9-0.4-2.3-1.2l-1.7-3.5c-0.4-0.8-1.4-1.2-2.2-0.8l-4.1,1.9c-0.8,0.4-1.2,1.4-0.8,2.2l1.6,3.5
						c0.4,0.8,0.1,2-0.5,2.6l-4,4.4c-0.5,0.7-1.7,1.1-2.5,0.8l-3.7-1.3c-0.8-0.3-1.8,0.1-2.1,1l-1.5,4.2c-0.3,0.8,0.1,1.8,1,2.1
						l3.7,1.3c0.8,0.3,1.5,1.3,1.4,2.2l0.2,5.9c0.1,0.9-0.4,1.9-1.2,2.3l-3.5,1.6c-0.8,0.4-1.2,1.4-0.8,2.2l1.9,4.1
						c0.4,0.8,1.4,1.2,2.2,0.8l3.5-1.6c0.8-0.4,2-0.1,2.6,0.5l4.4,4c0.7,0.5,1.1,1.7,0.8,2.5l-1.3,3.7c-0.3,0.8,0.1,1.8,1,2.1
						l4.2,1.5c0.8,0.3,1.8-0.1,2.1-1l1.3-3.7c0.3-0.9,1.3-1.5,2.2-1.4l5.9-0.2c0.9-0.1,1.9,0.4,2.3,1.2l1.7,3.5
						C130,165.9,131,166.2,131.8,165.8z M117.3,151.3c-6.8-2.5-10.3-10-7.8-16.8c2.5-6.8,10-10.3,16.8-7.8c6.8,2.5,10.3,10,7.8,16.8
						C131.6,150.3,124.1,153.8,117.3,151.3z"/>
				</g>
				<g>
					<path fill="#29A8E0" stroke="#58595B" stroke-width="2.0252" stroke-miterlimit="10" d="M114.1,166.7l-4.2-1.5
						c-0.9-0.3-1.4-1.4-1.1-2.3l1.3-3.7c0.3-0.8,0-1.8-0.7-2.3l-4.4-4c-0.6-0.6-1.6-0.9-2.4-0.5l-3.5,1.6c-0.4,0.2-0.9,0.2-1.4,0.1
						c0,0,0,0,0,0c-0.5-0.2-0.8-0.5-1-0.9l-1.9-4.1c-0.2-0.4-0.2-0.9-0.1-1.4c0.2-0.5,0.5-0.8,0.9-1l3.5-1.6
						c0.8-0.4,1.3-1.3,1.1-2.1l-0.2-5.9c0.1-0.8-0.5-1.8-1.3-2.1l-3.7-1.3c-0.9-0.3-1.4-1.4-1.1-2.3l1.5-4.2
						c0.3-0.9,1.4-1.4,2.3-1.1l3.7,1.3l0,0c0.8,0.3,1.8,0,2.3-0.7l4-4.4c0.6-0.6,0.9-1.6,0.5-2.4l-1.6-3.5c-0.2-0.4-0.2-0.9-0.1-1.4
						c0.2-0.5,0.5-0.8,0.9-1l4.1-1.9c0.4-0.2,0.9-0.2,1.4-0.1l0,0c0.5,0.2,0.8,0.5,1,0.9l1.7,3.5c0.3,0.7,1.3,1.3,2.1,1.1l5.9-0.2
						c0.9,0.1,1.8-0.5,2-1.3l1.3-3.7c0.3-0.9,1.4-1.4,2.3-1.1l4.2,1.5c0.9,0.3,1.4,1.4,1.1,2.3l-1.3,3.7c-0.3,0.8,0,1.8,0.7,2.3
						l4.4,4c0.6,0.6,1.6,0.9,2.4,0.5l3.5-1.6c0.9-0.4,2,0,2.4,0.9l1.9,4.1c0.2,0.4,0.2,0.9,0.1,1.4c-0.2,0.5-0.5,0.8-0.9,1l-3.5,1.6
						c-0.8,0.4-1.3,1.3-1.1,2.1l0.2,5.9c-0.1,0.8,0.6,1.8,1.3,2.1l0,0l3.7,1.3c0.9,0.3,1.4,1.4,1.1,2.3L148,151
						c-0.2,0.5-0.5,0.8-0.9,1c-0.4,0.2-0.9,0.2-1.4,0.1l0,0l-3.7-1.3c-0.8-0.3-1.8,0-2.3,0.7l-4,4.4c-0.6,0.6-0.9,1.6-0.5,2.4
						l1.6,3.5c0.2,0.4,0.2,0.9,0.1,1.4c-0.2,0.5-0.5,0.8-0.9,1l-4.1,1.9c-0.4,0.2-0.9,0.2-1.4,0.1c0,0,0,0,0,0
						c-0.5-0.2-0.8-0.5-1-0.9l-1.7-3.5c-0.4-0.8-1.3-1.3-2.1-1.1l-5.9,0.2c-0.8-0.1-1.8,0.5-2.1,1.3l-1.3,3.7
						C116,166.6,115,167.1,114.1,166.7z M104.3,152c0.4,0.1,0.7,0.3,0.9,0.6l4.3,4c0.8,0.6,1.1,1.8,0.8,2.7l-1.3,3.7
						c-0.3,0.8,0.1,1.6,0.9,1.9l4.2,1.5c0.8,0.3,1.6-0.1,1.9-0.9l1.3-3.7c0.3-0.9,1.4-1.6,2.4-1.5l5.9-0.2c0.9-0.1,2.1,0.5,2.5,1.3
						l1.7,3.5c0.2,0.4,0.5,0.6,0.8,0.8l0,0c0.4,0.1,0.8,0.1,1.1-0.1l0,0l4.1-1.9c0.4-0.2,0.6-0.5,0.8-0.8c0.1-0.4,0.1-0.8-0.1-1.1
						l-1.6-3.5c-0.4-0.9-0.1-2.1,0.6-2.8l4-4.3c0.6-0.8,1.8-1.1,2.7-0.8l3.7,1.3l0,0c0.4,0.1,0.8,0.1,1.1,0c0.4-0.2,0.6-0.5,0.8-0.8
						l1.5-4.2c0.3-0.8-0.1-1.6-0.9-1.9l-3.7-1.3c0,0,0,0,0,0c-0.9-0.3-1.6-1.4-1.6-2.4l-0.2-5.9c-0.1-0.9,0.5-2.1,1.3-2.5l3.5-1.6
						c0.4-0.2,0.6-0.5,0.8-0.8c0.1-0.4,0.1-0.8-0.1-1.1l-1.9-4.1c-0.3-0.7-1.2-1.1-2-0.7l-3.5,1.6c-0.9,0.4-2.1,0.2-2.8-0.6l-4.3-4
						c-0.8-0.6-1.1-1.8-0.8-2.7l1.3-3.7c0.3-0.8-0.1-1.6-0.9-1.9l-4.2-1.5c-0.8-0.3-1.6,0.1-1.9,0.9l-1.3,3.7
						c-0.3,0.9-1.4,1.6-2.4,1.6l-5.9,0.2c-0.9,0.1-2.1-0.5-2.5-1.3l-1.7-3.5c-0.2-0.4-0.5-0.6-0.8-0.8l0,0c-0.4-0.1-0.8-0.1-1.1,0
						l-4.1,1.9c-0.4,0.2-0.6,0.5-0.8,0.8c-0.1,0.4-0.1,0.8,0,1.1l1.6,3.5c0.4,0.9,0.1,2.1-0.6,2.8l-4,4.3c-0.6,0.8-1.8,1.1-2.7,0.8
						c0,0,0,0,0,0l-3.7-1.3c-0.8-0.3-1.6,0.1-1.9,0.9l-1.5,4.2c-0.3,0.8,0.1,1.6,0.9,1.9l3.7,1.3c0.9,0.3,1.6,1.4,1.5,2.4l0.2,5.9
						c0.1,0.9-0.5,2.1-1.3,2.5l-3.5,1.6c-0.4,0.2-0.6,0.5-0.8,0.8c-0.1,0.4-0.1,0.8,0,1.1L97,153c0.2,0.4,0.5,0.6,0.8,0.8l0,0
						c0.4,0.1,0.8,0.1,1.1-0.1l3.5-1.6C103.1,151.8,103.8,151.8,104.3,152z M117.3,151.5c-3.3-1.2-6-3.7-7.5-6.9
						c-1.5-3.2-1.6-6.8-0.4-10.1c2.5-6.9,10.1-10.4,17-7.9c6.9,2.5,10.4,10.1,7.9,17C131.8,150.4,124.1,154,117.3,151.5L117.3,151.5
						L117.3,151.5z M126.2,126.8c-6.7-2.4-14.1,1-16.6,7.7c-1.2,3.2-1,6.8,0.4,9.9c1.5,3.1,4,5.5,7.3,6.7c0,0,0,0,0,0l0,0
						c6.7,2.4,14.1-1,16.6-7.7C136.4,136.7,132.9,129.3,126.2,126.8z"/>
				</g>
			</g>
		</g>
	</g>
	<g display="inline">
		<g>
			<path fill="#29A8E0" stroke="#58595B" stroke-width="0.7152" stroke-miterlimit="10" d="M158.7,172.1l2.2-0.6
				c0.5-0.1,0.5-0.3,0-0.4l-1.9-0.5c-0.4-0.1-0.6-0.3-0.3-0.5l1.6-1c0.2-0.2,0.8-0.3,1.5-0.3l2.7,0c0.6,0,1.1-0.1,1.1-0.3l0-0.8
				c0-0.2-0.5-0.3-1.1-0.3l-2.7,0c-0.6,0-1.3-0.1-1.5-0.3l-1.6-1c-0.3-0.1-0.2-0.4,0.3-0.5l1.9-0.5c0.5-0.1,0.5-0.3,0-0.4l-2.2-0.6
				c-0.4-0.1-1.2-0.1-1.6,0l-1.9,0.5c-0.4,0.1-1.3,0.1-1.8,0.1l-3.8-0.4c-0.6,0-1.1-0.2-1.1-0.4l0-0.7c0-0.2-0.5-0.3-1.1-0.3l-3.1,0
				c-0.6,0-1.1,0.1-1.1,0.3l0,0.7c0,0.2-0.5,0.3-1.1,0.4l-3.8,0.4c-0.5,0.1-1.4,0-1.8-0.1l-1.9-0.5c-0.4-0.1-1.2-0.1-1.6,0l-2.2,0.6
				c-0.4,0.1-0.4,0.3,0,0.4l1.9,0.5c0.4,0.1,0.6,0.3,0.3,0.5l-1.6,1c-0.2,0.2-0.8,0.3-1.5,0.3l-2.7,0c-0.6,0-1.1,0.1-1.1,0.3l0,0.8
				c0,0.2,0.5,0.3,1.1,0.3l2.7,0c0.6,0,1.3,0.1,1.5,0.3l1.6,1c0.3,0.1,0.2,0.4-0.3,0.5l-1.9,0.5c-0.4,0.1-0.4,0.3,0,0.4l2.2,0.6
				c0.4,0.1,1.2,0.1,1.6,0l1.9-0.5c0.4-0.1,1.3-0.1,1.8-0.1l3.8,0.4c0.6,0,1.1,0.2,1.1,0.4l0,0.7c0,0.2,0.5,0.3,1.1,0.3l3.1,0
				c0.6,0,1.1-0.1,1.1-0.3l0-0.7c0-0.2,0.5-0.3,1.1-0.4l3.8-0.4c0.6-0.1,1.4,0,1.8,0.1l1.9,0.5C157.5,172.2,158.2,172.2,158.7,172.1
				z M145.7,170.5c-5,0-9.1-1.1-9.1-2.4c0-1.3,4.1-2.3,9.1-2.3c5,0,9.1,1.1,9.1,2.4C154.8,169.5,150.8,170.5,145.7,170.5z"/>
		</g>
		<g>
			<path fill="#29A8E0" stroke="#58595B" stroke-width="0.7152" stroke-miterlimit="10" d="M147.3,173.3l-3.1,0
				c-0.7,0-1.3-0.1-1.3-0.3l0-0.7c0-0.1-0.5-0.3-1-0.3l-3.8-0.4c-0.5-0.1-1.3,0-1.7,0.1l-1.9,0.5c-0.2,0.1-0.6,0.1-0.9,0.1h0
				c-0.3,0-0.7,0-0.9-0.1l-2.2-0.6c-0.2-0.1-0.4-0.1-0.4-0.2c0-0.1,0.1-0.2,0.4-0.2l1.9-0.5c0.4-0.1,0.5-0.3,0.2-0.4l-1.6-1
				c-0.2-0.1-0.8-0.3-1.4-0.3l-2.7,0c-0.7,0-1.3-0.1-1.3-0.3l0-0.8c0-0.2,0.6-0.3,1.3-0.3l2.7,0h0c0.6,0,1.2-0.1,1.4-0.3l1.6-1
				c0.3-0.1,0.2-0.3-0.2-0.4l-1.9-0.5c-0.2-0.1-0.4-0.1-0.4-0.2c0-0.1,0.1-0.2,0.4-0.2l2.2-0.6c0.2-0.1,0.6-0.1,0.9-0.1h0
				c0.3,0,0.7,0,0.9,0.1l1.9,0.5c0.4,0.1,1.2,0.1,1.7,0.1l3.8-0.4c0.6,0,1-0.2,1-0.3l0-0.7c0-0.2,0.6-0.3,1.3-0.3l3.1,0
				c0.7,0,1.3,0.1,1.3,0.3l0,0.7c0,0.1,0.5,0.3,1,0.3l3.8,0.4c0.5,0.1,1.3,0,1.7-0.1l1.9-0.5c0.5-0.1,1.3-0.1,1.8,0l2.2,0.6
				c0.2,0.1,0.4,0.1,0.4,0.2c0,0.1-0.1,0.2-0.4,0.2l-1.9,0.5c-0.4,0.1-0.5,0.3-0.2,0.4l1.6,1c0.2,0.1,0.8,0.3,1.4,0.3h0l2.7,0
				c0.7,0,1.3,0.1,1.3,0.3l0,0.8c0,0.1-0.1,0.2-0.4,0.2c-0.2,0.1-0.6,0.1-0.9,0.1h0l-2.7,0c-0.6,0-1.2,0.1-1.4,0.3l-1.6,1
				c-0.3,0.1-0.2,0.3,0.2,0.4l1.9,0.5c0.2,0.1,0.4,0.1,0.4,0.2c0,0.1-0.1,0.2-0.4,0.2l-2.2,0.6c-0.2,0.1-0.6,0.1-0.9,0.1h0
				c-0.3,0-0.7,0-0.9-0.1l-1.9-0.5c-0.4-0.1-1.2-0.1-1.7-0.1l-3.8,0.4c-0.6,0-1,0.2-1,0.3l0,0.7C148.5,173.2,148,173.3,147.3,173.3z
				 M137.4,171.5c0.3,0,0.5,0,0.8,0l3.8,0.4c0.6,0,1.2,0.2,1.2,0.4l0,0.7c0,0.1,0.5,0.3,1,0.3l3.1,0c0.6,0,1-0.1,1-0.3l0-0.7
				c0-0.2,0.5-0.4,1.2-0.4l3.8-0.4c0.6-0.1,1.5-0.1,1.9,0.1l1.9,0.5c0.2,0.1,0.4,0.1,0.7,0.1h0c0.3,0,0.5,0,0.7-0.1h0l2.2-0.6
				c0.2,0,0.3-0.1,0.3-0.2c0-0.1-0.1-0.1-0.3-0.2l-1.9-0.5c-0.5-0.1-0.6-0.4-0.3-0.5l1.6-1c0.2-0.2,0.9-0.3,1.6-0.3l2.7,0h0
				c0.3,0,0.5,0,0.7-0.1c0.2,0,0.3-0.1,0.3-0.2l0-0.8c0-0.1-0.5-0.3-1-0.3l-2.7,0h0c-0.7,0-1.4-0.1-1.6-0.3l-1.6-1
				c-0.3-0.2-0.2-0.4,0.3-0.5l1.9-0.5c0.2-0.1,0.3-0.1,0.3-0.2c0-0.1-0.1-0.1-0.3-0.2l-2.2-0.6c-0.4-0.1-1.1-0.1-1.4,0l-1.9,0.5
				c-0.5,0.1-1.4,0.2-1.9,0.1l-3.8-0.4c-0.6,0-1.2-0.2-1.2-0.4l0-0.7c0-0.1-0.5-0.3-1-0.3l-3.1,0c-0.6,0-1,0.1-1,0.3l0,0.7
				c0,0.2-0.5,0.4-1.2,0.4l-3.8,0.4c-0.6,0.1-1.5,0-1.9-0.1l-1.9-0.5c-0.2-0.1-0.4-0.1-0.7-0.1h0c-0.3,0-0.5,0-0.7,0.1l-2.2,0.6
				c-0.2,0-0.3,0.1-0.3,0.2c0,0.1,0.1,0.1,0.3,0.2l1.9,0.5c0.5,0.1,0.6,0.4,0.3,0.5l-1.6,1c-0.2,0.2-0.9,0.3-1.6,0.3h0l-2.7,0
				c-0.6,0-1,0.1-1,0.3l0,0.8c0,0.1,0.5,0.3,1,0.3l2.7,0c0.7,0,1.4,0.1,1.6,0.3l1.6,1c0.3,0.2,0.2,0.4-0.3,0.5l-1.9,0.5
				c-0.2,0-0.3,0.1-0.3,0.2c0,0.1,0.1,0.1,0.3,0.2l2.2,0.6c0.2,0.1,0.4,0.1,0.7,0.1h0c0.3,0,0.5,0,0.7-0.1l1.9-0.5
				C136.5,171.5,137,171.5,137.4,171.5z M145.7,170.6c-2.5,0-4.8-0.3-6.5-0.7c-1.7-0.5-2.7-1-2.7-1.7c0-1.3,4.1-2.4,9.2-2.4
				c5.1,0,9.2,1.1,9.2,2.4C155,169.5,150.8,170.6,145.7,170.6L145.7,170.6L145.7,170.6z M145.7,165.9c-5,0-9,1-9,2.3
				c0,0.6,0.9,1.2,2.6,1.6c1.7,0.4,4,0.7,6.4,0.7h0l0,0c5,0,9-1,9-2.3C154.7,166.9,150.7,165.9,145.7,165.9z"/>
		</g>
	</g>
	<g display="inline">
		<g>
			<path fill="#29A8E0" stroke="#58595B" stroke-width="0.5446" stroke-miterlimit="10" d="M119.8,178.5l1.7-0.4
				c0.3-0.1,0.3-0.2,0-0.3l-1.5-0.4c-0.3-0.1-0.4-0.2-0.2-0.4l1.2-0.7c0.1-0.1,0.6-0.2,1.1-0.2l2.1,0c0.5,0,0.9-0.1,0.9-0.2l0-0.6
				c0-0.1-0.4-0.2-0.9-0.2l-2.1,0c-0.5,0-1-0.1-1.1-0.2l-1.2-0.7c-0.2-0.1-0.1-0.3,0.2-0.4l1.5-0.4c0.3-0.1,0.3-0.2,0-0.3l-1.7-0.4
				c-0.3-0.1-0.9-0.1-1.2,0l-1.5,0.4c-0.3,0.1-1,0.1-1.4,0.1l-2.9-0.3c-0.5,0-0.8-0.2-0.8-0.3l0-0.5c0-0.1-0.4-0.2-0.9-0.2l-2.4,0
				c-0.5,0-0.9,0.1-0.9,0.2l0,0.5c0,0.1-0.4,0.3-0.8,0.3l-2.9,0.3c-0.4,0.1-1,0-1.4-0.1l-1.5-0.4c-0.3-0.1-0.9-0.1-1.2,0l-1.7,0.4
				c-0.3,0.1-0.3,0.2,0,0.3l1.5,0.4c0.3,0.1,0.4,0.2,0.2,0.4l-1.2,0.7c-0.1,0.1-0.6,0.2-1.1,0.2l-2.1,0c-0.5,0-0.9,0.1-0.9,0.2
				l0,0.6c0,0.1,0.4,0.2,0.9,0.2l2.1,0c0.5,0,1,0.1,1.1,0.2l1.2,0.7c0.2,0.1,0.1,0.3-0.2,0.4l-1.5,0.4c-0.3,0.1-0.3,0.2,0,0.3
				l1.7,0.4c0.3,0.1,0.9,0.1,1.2,0l1.5-0.4c0.3-0.1,1-0.1,1.4,0l2.9,0.3c0.5,0,0.8,0.2,0.8,0.3l0,0.5c0,0.1,0.4,0.2,0.9,0.2l2.4,0
				c0.5,0,0.9-0.1,0.9-0.2l0-0.5c0-0.1,0.4-0.3,0.8-0.3l2.9-0.3c0.4-0.1,1,0,1.4,0.1l1.5,0.4C119,178.6,119.5,178.6,119.8,178.5z
				 M110,177.3c-3.8,0-6.9-0.8-6.9-1.8c0-1,3.1-1.8,6.9-1.8c3.8,0,6.9,0.8,6.9,1.8C116.9,176.5,113.8,177.3,110,177.3z"/>
		</g>
		<g>
			<path fill="#29A8E0" stroke="#58595B" stroke-width="0.5446" stroke-miterlimit="10" d="M111.2,179.4l-2.4,0c-0.5,0-1-0.1-1-0.2
				l0-0.5c0-0.1-0.4-0.2-0.8-0.3l-2.9-0.3c-0.4-0.1-1,0-1.3,0l-1.5,0.4c-0.2,0-0.4,0.1-0.7,0.1h0c-0.3,0-0.5,0-0.7-0.1l-1.7-0.4
				c-0.2,0-0.3-0.1-0.3-0.2c0-0.1,0.1-0.1,0.3-0.2l1.5-0.4c0.3-0.1,0.4-0.2,0.2-0.3l-1.2-0.7c-0.1-0.1-0.6-0.2-1-0.2l-2.1,0
				c-0.5,0-1-0.1-1-0.2l0-0.6c0-0.1,0.4-0.2,1-0.2l2.1,0h0c0.4,0,0.9-0.1,1-0.2l1.2-0.7c0.2-0.1,0.1-0.2-0.2-0.3l-1.5-0.4
				c-0.2,0-0.3-0.1-0.3-0.2c0-0.1,0.1-0.1,0.3-0.2l1.7-0.4c0.2,0,0.4-0.1,0.7-0.1h0c0.3,0,0.5,0,0.7,0.1l1.5,0.4
				c0.3,0.1,0.9,0.1,1.3,0l2.9-0.3c0.4,0,0.8-0.2,0.8-0.3l0-0.5c0-0.1,0.4-0.2,1-0.2l2.4,0c0.5,0,1,0.1,1,0.2l0,0.5
				c0,0.1,0.3,0.2,0.8,0.3l2.9,0.3c0.4,0.1,1,0,1.3,0l1.5-0.4c0.4-0.1,1-0.1,1.4,0l1.7,0.4c0.2,0,0.3,0.1,0.3,0.2
				c0,0.1-0.1,0.1-0.3,0.2l-1.5,0.4c-0.3,0.1-0.4,0.2-0.2,0.3l1.2,0.7c0.1,0.1,0.6,0.2,1,0.2h0l2.1,0c0.5,0,1,0.1,1,0.2l0,0.6
				c0,0.1-0.1,0.1-0.3,0.2c-0.2,0-0.4,0.1-0.7,0.1h0l-2.1,0c-0.4,0-0.9,0.1-1,0.2L120,177c-0.2,0.1-0.1,0.2,0.2,0.3l1.5,0.4
				c0.2,0,0.3,0.1,0.3,0.2c0,0.1-0.1,0.1-0.3,0.2l-1.7,0.4c-0.2,0-0.4,0.1-0.7,0.1h0c-0.3,0-0.5,0-0.7-0.1l-1.5-0.4
				c-0.3-0.1-0.9-0.1-1.3,0l-2.9,0.3c-0.4,0-0.8,0.2-0.8,0.3l0,0.5C112.1,179.3,111.7,179.4,111.2,179.4z M103.7,178
				c0.2,0,0.4,0,0.6,0l2.9,0.3c0.5,0,0.9,0.2,0.9,0.3l0,0.5c0,0.1,0.4,0.2,0.8,0.2l2.4,0c0.4,0,0.8-0.1,0.8-0.2l0-0.5
				c0-0.1,0.4-0.3,0.9-0.3l2.9-0.3c0.4-0.1,1.1,0,1.5,0.1l1.5,0.4c0.1,0,0.3,0.1,0.5,0.1l0,0c0.2,0,0.4,0,0.6-0.1h0l1.7-0.4
				c0.1,0,0.2-0.1,0.2-0.1c0-0.1-0.1-0.1-0.2-0.1l-1.5-0.4c-0.4-0.1-0.5-0.3-0.2-0.4l1.2-0.7c0.1-0.1,0.7-0.2,1.2-0.2l2.1,0h0
				c0.2,0,0.4,0,0.6-0.1c0.1,0,0.2-0.1,0.2-0.1l0-0.6c0-0.1-0.3-0.2-0.8-0.2l-2.1,0h0c-0.5,0-1.1-0.1-1.2-0.2l-1.2-0.7
				c-0.2-0.1-0.2-0.3,0.2-0.4l1.5-0.4c0.1,0,0.2-0.1,0.2-0.1c0-0.1-0.1-0.1-0.2-0.1l-1.7-0.4c-0.3-0.1-0.8-0.1-1.1,0l-1.5,0.4
				c-0.4,0.1-1,0.1-1.5,0.1l-2.9-0.3c-0.5,0-0.9-0.2-0.9-0.3l0-0.5c0-0.1-0.3-0.2-0.8-0.2l-2.4,0c-0.4,0-0.8,0.1-0.8,0.2l0,0.5
				c0,0.1-0.4,0.3-0.9,0.3l-2.9,0.3c-0.4,0.1-1.1,0-1.5-0.1l-1.5-0.4c-0.1,0-0.3-0.1-0.5-0.1h0c-0.2,0-0.4,0-0.5,0.1l-1.7,0.4
				c-0.1,0-0.2,0.1-0.2,0.1c0,0.1,0.1,0.1,0.2,0.1l1.5,0.4c0.4,0.1,0.5,0.3,0.2,0.4l-1.2,0.7c-0.1,0.1-0.7,0.2-1.2,0.2h0l-2.1,0
				c-0.4,0-0.8,0.1-0.8,0.2l0,0.6c0,0.1,0.3,0.2,0.8,0.2l2.1,0c0.5,0,1.1,0.1,1.2,0.2l1.2,0.7c0.2,0.1,0.1,0.3-0.2,0.4l-1.5,0.4
				c-0.1,0-0.2,0.1-0.2,0.1c0,0.1,0.1,0.1,0.2,0.1l1.7,0.4c0.1,0,0.3,0.1,0.5,0.1h0c0.2,0,0.4,0,0.5-0.1l1.5-0.4
				C103,178,103.3,178,103.7,178z M110,177.3c-1.9,0-3.6-0.2-5-0.5c-1.3-0.3-2.1-0.8-2.1-1.3c0-1,3.2-1.8,7-1.8c3.9,0,7,0.8,7,1.8
				C117,176.5,113.9,177.3,110,177.3L110,177.3L110,177.3z M110,173.8c-3.8,0-6.9,0.8-6.9,1.8c0,0.5,0.7,0.9,2,1.2
				c1.3,0.3,3,0.5,4.8,0.5h0l0,0c3.8,0,6.9-0.8,6.9-1.8C116.8,174.6,113.8,173.8,110,173.8z"/>
		</g>
	</g>
</g>
<g display="none">
	<path display="inline" fill="#27AAE1" d="M87.2,128.6l13.9,13.9l-11.1,11l-13.9-13.9L87.2,128.6z M116.9,132.3
		c5.8-0.1,11.8-2.5,16.5-7.1c3.9-3.9,6.2-8.7,7-13.5c1.5-5.7,3-14.3,12-26.4c1.2,0.4,2.5,0.1,3.4-0.8c1.3-1.3,1.3-3.4,0-4.8
		c-0.7-0.7-1.6-1-2.5-1L126.9,105c1,2.1,0.7,4.6-1,6.3c-2.1,2.1-5.6,2.1-7.7,0c-2.1-2.1-2.1-5.6,0-7.7c1.8-1.8,4.5-2,6.6-0.8
		l26.4-26.3c0.1-0.9-0.3-1.8-1-2.5c-1.3-1.3-3.4-1.3-4.8,0c-0.9,0.9-1.2,2.2-0.8,3.4c-13.4,9.9-22.4,10.6-28.1,12.4
		c-4.2,1-8.4,3.2-11.8,6.6c-4.7,4.7-7.1,10.6-7.2,16.4l-11.7,9.5l21.6,21.7L116.9,132.3z"/>
	
		<rect x="63.1" y="60.1" display="inline" fill="none" stroke="#58595B" stroke-width="5" stroke-miterlimit="10" width="105.5" height="106.3"/>
	<g display="inline">
		<rect x="161.9" y="159.8" fill="#FFFFFF" width="13.5" height="13.5"/>
		<path fill="#58595B" d="M176.1,174h-14.9v-14.9h14.9V174z M162.6,172.6h12.1v-12.1h-12.1V172.6z"/>
		<rect x="56.5" y="159.8" fill="#FFFFFF" width="13.5" height="13.5"/>
		<path fill="#58595B" d="M70.6,174H55.8v-14.9h14.9V174z M57.2,172.6h12.1v-12.1H57.2V172.6z"/>
		<g>
			<rect x="161.9" y="53.5" fill="#FFFFFF" width="13.5" height="13.5"/>
			<path fill="#58595B" d="M176.1,67.7h-14.9V52.8h14.9V67.7z M162.6,66.3h12.1V54.2h-12.1V66.3z"/>
			<rect x="56.5" y="53.5" fill="#FFFFFF" width="13.5" height="13.5"/>
			<path fill="#58595B" d="M70.6,67.7H55.8V52.8h14.9V67.7z M57.2,66.3h12.1V54.2H57.2V66.3z"/>
			<rect x="111.1" y="54.7" fill="#FFFFFF" width="10.7" height="10.7"/>
			<path fill="#58595B" d="M122.5,66.1h-12.1V54h12.1V66.1z M111.8,64.7h9.3v-9.3h-9.3V64.7z"/>
		</g>
		<rect x="57.9" y="107.9" fill="#FFFFFF" width="10.7" height="10.7"/>
		<path fill="#58595B" d="M69.3,119.3H57.2v-12.1h12.1V119.3z M58.6,117.9h9.3v-9.3h-9.3V117.9z"/>
		<rect x="163.3" y="107.9" fill="#FFFFFF" width="10.7" height="10.7"/>
		<path fill="#58595B" d="M174.7,119.3h-12.1v-12.1h12.1V119.3z M164,117.9h9.3v-9.3H164V117.9z"/>
		<g>
			<rect x="110.5" y="161.2" fill="#FFFFFF" width="10.7" height="10.7"/>
			<path fill="#58595B" d="M121.9,172.6h-12.1v-12.1h12.1V172.6z M111.2,171.2h9.3v-9.3h-9.3V171.2z"/>
		</g>
	</g>
</g>
<g display="none">
	<g display="inline">
		<g>
			<path fill="#F1F2F2" d="M76.1,77.4v-8.5c0-4.3-3.5-7.9-7.9-7.9c-4.3,0-7.9,3.5-7.9,7.9v8.5H76.1z"/>
			<path fill="#58595B" d="M58,68.9c0-5.7,4.6-10.3,10.3-10.3c5.7,0,10.3,4.6,10.3,10.3v11H58V68.9z M73.7,68.9c0-3-2.4-5.4-5.4-5.4
				c-3,0-5.4,2.4-5.4,5.4V75h10.8V68.9z"/>
		</g>
		<path fill="#27AAE1" d="M76.1,68.9v87.8h0l0,1.3c0,4,3.1,7.3,7,7.8c2.1,0,69.6,0,73.1,0c-3.9-0.5-6.9-3.8-6.9-7.8v-1.8h0V68.9
			c0-4-3-7.3-6.9-7.8c-2.1,0-69.6,0-73.1,0C73.1,61.5,76.1,64.8,76.1,68.9z"/>
		<path fill="#58595B" d="M82.8,168.2c-4.8-0.6-8.5-4.4-9.1-9.1h-0.1V68.9c0-2.7-2.1-5-4.8-5.4l0.3-4.9c1.2,0,9.4,0,20,0l53.1,0
			l0.3,0c5.2,0.6,9.1,5,9.1,10.2l0,89.1c0,2.7,2.1,5,4.8,5.4l-0.3,4.9c-1.2,0-9.4,0-20,0l-53.2,0L82.8,168.2z M148.3,163.3
			c-0.8-1.4-1.4-3-1.5-4.7h0V68.9c0-2.7-2-5-4.6-5.3l-52.9,0c-4.6,0-8.8,0-12.1,0c0.9,1.6,1.5,3.4,1.5,5.3v85.3h0.1l-0.1,3.8
			c0,2.7,2,5,4.7,5.3l52.9,0C140.8,163.3,144.9,163.3,148.3,163.3z"/>
		<g>
			<path fill="#F1F2F2" d="M90.6,154v3.9c0,4-3,7.3-6.9,7.8c3.5,0,70.9,0,73.1,0c3.9-0.5,6.9-3.8,6.9-7.8V154H90.6z"/>
			<path fill="#58595B" d="M103.7,168.2c-10.6,0-18.9,0-20,0l-0.3-4.9c2.7-0.3,4.8-2.6,4.8-5.4v-6.4h78v6.4c0,5.2-3.9,9.6-9.1,10.2
				l-0.3,0L103.7,168.2z M93.1,156.5v1.5c0,1.9-0.5,3.8-1.5,5.3c3.3,0,7.5,0,12.1,0l52.9,0c2.7-0.4,4.6-2.6,4.6-5.3v-1.5H93.1z"/>
		</g>
		<g>
			<rect x="85.3" y="76" fill="#FFFFFF" width="54.7" height="3.8"/>
			<rect x="85.3" y="84.9" fill="#FFFFFF" width="54.7" height="3.8"/>
			<rect x="85.3" y="94" fill="#FFFFFF" width="54.7" height="3.8"/>
			<rect x="85.3" y="103.6" fill="#FFFFFF" width="54.7" height="3.8"/>
			<rect x="85.3" y="113.4" fill="#FFFFFF" width="54.7" height="3.8"/>
			<rect x="85.3" y="122.9" fill="#FFFFFF" width="54.7" height="3.8"/>
			<rect x="85.3" y="130.9" fill="#FFFFFF" width="39.4" height="3.8"/>
		</g>
	</g>
	<g display="inline">
		
			<rect x="171.6" y="61.2" transform="matrix(0.6401 -0.7683 0.7683 0.6401 10.4453 159.6997)" fill="#27AAE1" width="8.2" height="15.1"/>
		<g>
			<polygon fill="#27AAE1" points="138.8,122.8 138,123.8 124.8,128.8 127.4,115 128.2,114 			"/>
			<polygon fill="#58595B" points="140.3,124.1 139.2,125.4 122.3,131.9 125.6,114.1 126.7,112.8 129.8,115.3 129.2,116 
				127.4,125.8 136.7,122.2 137.2,121.5 			"/>
		</g>
		<g>
			
				<rect x="146.1" y="64.4" transform="matrix(0.7683 0.6401 -0.6401 0.7683 96.221 -75.9934)" fill="#F1F2F2" width="13.9" height="61"/>
			<path fill="#58595B" d="M130.9,113.8l36.7-44.1l7.6,6.3l-36.7,44.1L130.9,113.8L130.9,113.8z M125.5,114l13.8,11.5l41.4-49.6
				l-13.8-11.5L125.5,114L125.5,114z"/>
		</g>
		<g>
			
				<rect x="123.8" y="92.1" transform="matrix(0.6401 -0.7683 0.7683 0.6401 -16.9138 152.019)" fill="#58595B" width="60" height="4"/>
		</g>
		<g>
			<path fill="#58595B" d="M180.3,76.2l-3.1-2.6l2.8-3.4l-7.6-6.3l-2.8,3.3l-3.1-2.6l3.2-3.9c1-1.2,3.1-1.2,4.6,0l8.3,6.9
				c1.5,1.2,1.9,3.3,0.8,4.5L180.3,76.2z"/>
		</g>
	</g>
</g>
<g>
	<path fill="#58595B" d="M89.8,126.5c1.6,0,2.9,1.2,2.9,2.6v22.5c0,1.4-1.3,2.6-2.9,2.6H52c-1.6,0-2.9-1.2-2.9-2.6v-22.5
		c0-1.4,1.3-2.6,2.9-2.6H89.8z"/>
	<rect x="53.9" y="128.9" fill="#FFFFFF" width="34.5" height="23.1"/>
	<rect x="55.3" y="130.5" fill="#44BDE8" width="31.8" height="19.4"/>
	<rect x="56.1" y="130.1" fill="#FCFDFD" width="29.5" height="20.5"/>
	<rect x="51.2" y="131.8" fill="#44BDE8" width="1" height="17.4"/>
	<path fill="#44BDE8" d="M90.4,145.1c0.3,0,0.6,0.3,0.6,0.7v4.6c0,0.4-0.3,0.7-0.6,0.7l0,0c-0.3,0-0.6-0.3-0.6-0.7v-4.6
		C89.8,145.4,90,145.1,90.4,145.1L90.4,145.1z"/>
	<path fill="#44BDE8" d="M90.4,129.8c0.3,0,0.6,0.3,0.6,0.7v4.6c0,0.4-0.3,0.7-0.6,0.7l0,0c-0.3,0-0.6-0.3-0.6-0.7v-4.6
		C89.8,130.1,90,129.8,90.4,129.8L90.4,129.8z"/>
	<ellipse fill="#44BDE8" cx="90.3" cy="140.7" rx="1.2" ry="1"/>
	<rect x="80.6" y="66.8" fill="#44BDE8" width="74.9" height="52.1"/>
	<rect x="84.8" y="70" fill="#FFFFFF" width="66.8" height="42.7"/>
	<path fill="#58595B" d="M153.4,61.4H82.7c-3.6,0-6.5,3.1-6.5,6.8v46.9c0,3.6,2.8,6.9,6.5,6.9h70.6c3.6,0,6.8-3.3,6.8-6.9V68.2
		C160.1,64.6,157,61.4,153.4,61.4z M155.5,116.6H80.9V66.9h74.5V116.6z"/>
	<g>
		<path fill="#58595B" d="M129.7,127.5h8.7v3.5H98v-3.5h8.7c0.7-0.7,1.7-2.1,2.7-4.7c0,0,0.5-1.9,1.5-2c0.5,0,3.9,0,7.2,0
			c3.4,0,6.8,0,7.2,0c1,0.1,1.5,2,1.5,2C127.9,125.5,129,126.8,129.7,127.5z"/>
		<path fill="#58595B" d="M129.7,127.5c-0.7-0.7-1.7-2.1-2.7-4.7c0,0-0.5-1.9-1.5-2c-0.5,0-3.9,0-7.2,0c-1.8,0-3.6,0-5,0
			c4.2,2.9,8,6.4,11.5,10.3h13.7v-3.5H129.7z"/>
	</g>
	<rect x="135.3" y="70" fill="#44BDE8" width="16.3" height="42.7"/>
	<rect x="137.6" y="70" fill="#FFFFFF" width="13.2" height="15.5"/>
	<rect x="137.6" y="90.9" fill="#FFFFFF" width="13.2" height="9.3"/>
	<rect x="137.6" y="104.1" fill="#FFFFFF" width="13.2" height="8.5"/>
	<rect x="84.8" y="70" fill="#44BDE8" width="6.2" height="28.7"/>
	<rect x="86.4" y="73.9" fill="#FFFFFF" width="1.6" height="2.3"/>
	<rect x="88.7" y="73.9" fill="#FFFFFF" width="1.6" height="2.3"/>
	<rect x="86.4" y="77.7" fill="#FFFFFF" width="1.6" height="3.9"/>
	<rect x="86.4" y="84.7" fill="#FFFFFF" width="1.6" height="3.9"/>
	<rect x="86.4" y="90.9" fill="#FFFFFF" width="1.6" height="4.7"/>
	<rect x="88.7" y="84.7" fill="#FFFFFF" width="1.6" height="3.9"/>
	<rect x="88.7" y="77.7" fill="#FFFFFF" width="1.6" height="3.9"/>
	<rect x="88.7" y="91.7" fill="#FFFFFF" width="1.6" height="3.9"/>
	<g>
		<rect x="84.8" y="70" fill="#58595B" width="6.2" height="2.3"/>
		<g>
			<rect x="91.8" y="68.4" fill="#58595B" width="42.7" height="0.8"/>
			<rect x="137.6" y="69.2" fill="#58595B" width="13.2" height="0.8"/>
			<rect x="137.6" y="90.2" fill="#58595B" width="13.2" height="0.8"/>
			<rect x="137.6" y="103.4" fill="#58595B" width="13.2" height="0.8"/>
			<rect x="84.8" y="114.2" fill="#58595B" width="50.5" height="0.8"/>
			<rect x="139.2" y="114.2" fill="#58595B" width="2.3" height="1.6"/>
			<rect x="143" y="114.2" fill="#58595B" width="2.3" height="1.6"/>
			<rect x="146.9" y="114.2" fill="#58595B" width="2.3" height="1.6"/>
		</g>
	</g>
	<g>
		<circle fill="#44BDE8" cx="108.4" cy="83.4" r="4.3"/>
		<circle fill="#44BDE8" cx="113.5" cy="85.1" r="3.5"/>
		<circle fill="#44BDE8" cx="118.2" cy="88.6" r="3.9"/>
		<circle fill="#44BDE8" cx="104.7" cy="88.3" r="4.9"/>
		<circle fill="#44BDE8" cx="111" cy="90.4" r="5.2"/>
	</g>
	
		<rect x="46.6" y="104.7" transform="matrix(-0.533 -0.8461 0.8461 -0.533 2.9538 215.1521)" fill="#58595B" width="28.4" height="4.2"/>
	<polygon fill="#44BDE8" points="68,114.2 70.2,117.7 70,121.2 66.7,119.9 64.5,116.5 	"/>
	<path fill="#58595B" d="M182.5,81.2h-15.9c-0.7,0-1.3,0.6-1.3,1.3v10.6c0,0.7,0.6,1.3,1.3,1.3h15.9c0.7,0,1.3-0.6,1.3-1.3V82.6
		C183.9,81.8,183.3,81.2,182.5,81.2z M172,92.9c-2.8,0-5-2.2-5-5c0-2.8,2.2-5,5-5c2.8,0,5,2.2,5,5C177,90.6,174.8,92.9,172,92.9z
		 M181.8,84.1h-1.6c-0.5,0-0.9-0.4-0.9-0.9c0-0.5,0.4-0.9,0.9-0.9h1.6c0.5,0,0.9,0.4,0.9,0.9C182.7,83.7,182.3,84.1,181.8,84.1z"/>
	<circle fill="#44BDE8" cx="172" cy="87.9" r="3.1"/>
	<path fill="#44BDE8" d="M174.2,80.7c0-0.2,0-0.2,0-0.3c0-0.8-0.6-1.5-1.3-1.5h-4.6c-0.7,0-1.3,0.7-1.3,1.5c0,0.1,0,0.2,0,0.3H174.2
		z"/>
	<g>
		<g>
			<path fill="#58595B" d="M144.2,141.4h-36.4c-3,0-5.3,2.6-5.3,5.6v14.5c0,3,2.3,4.9,5.3,4.9h36.4c3,0,4.7-1.9,4.7-4.9V147
				C148.8,144,147.2,141.4,144.2,141.4z M135.1,147h3.6v3.6h-3.6V147z M140.5,152.5v3.6h-3.6v-3.6H140.5z M129.6,147h3.6v3.6h-3.6
				V147z M135.1,152.5v3.6h-3.6v-3.6H135.1z M124.2,147h3.6v3.6h-3.6V147z M129.6,152.5v3.6H126v-3.6H129.6z M118.7,147h3.6v3.6
				h-3.6V147z M124.2,152.5v3.6h-3.6v-3.6H124.2z M107.8,147h3.6v3.6h-3.6V147z M111.4,161.6h-3.6v-3.6h3.6V161.6z M113.3,156.1
				h-3.6v-3.6h3.6V156.1z M113.3,147h3.6v3.6h-3.6V147z M118.7,152.5v3.6h-3.6v-3.6H118.7z M139.2,160.7h-25.1v-1.9h25.1V160.7z
				 M144.2,161.6h-3.6v-3.6h3.6V161.6z M144.2,150.7h-3.6V147h3.6V150.7z"/>
		</g>
		<g>
			<path fill="#58595B" d="M124.9,144.2c-0.1-0.2-2.7-4.1-1.2-7.6c0.9-2.1,3-3.5,6.3-4.1c2.5-0.5,4.3-1.6,5.2-3.3
				c1.8-3.2,0.2-7.6,0.2-7.7l1.8-0.7c0.1,0.2,1.9,5.3-0.3,9.3c-1.2,2.2-3.4,3.6-6.5,4.2c-2.6,0.5-4.3,1.5-4.9,3
				c-1.1,2.5,1,5.8,1,5.8L124.9,144.2z"/>
		</g>
	</g>
</g>
</svg>
